<?xml version="1.0" encoding="utf-8"?>
<!-- Generator: Adobe Illustrator 27.5.0, SVG Export Plug-In . SVG Version: 6.00 Build 0)  -->
<svg version="1.1" xmlns="http://www.w3.org/2000/svg" xmlns:xlink="http://www.w3.org/1999/xlink" x="0px" y="0px"
	 viewBox="0 0 500 500" style="enable-background:new 0 0 500 500;" xml:space="preserve">
<g id="Background">
	<radialGradient id="SVGID_1_" cx="250" cy="250" r="320.5825" gradientUnits="userSpaceOnUse">
		<stop  offset="0.1299" style="stop-color:#FFFFFF"/>
		<stop  offset="0.3672" style="stop-color:#FBFBFB"/>
		<stop  offset="0.6134" style="stop-color:#EEEEEE"/>
		<stop  offset="0.8628" style="stop-color:#DADADA"/>
		<stop  offset="1" style="stop-color:#CBCBCB"/>
	</radialGradient>
	<rect style="fill:url(#SVGID_1_);" width="500" height="500"/>
</g>
<g id="Objects">
	<g>
		<g>
			<g>
				
					<linearGradient id="SVGID_00000118388252395621652430000015631689155762771129_" gradientUnits="userSpaceOnUse" x1="-435.9749" y1="-981.7352" x2="-459.7864" y2="-971.7235" gradientTransform="matrix(0.5153 0.857 -0.857 0.5153 -321.3652 1125.4845)">
					<stop  offset="0" style="stop-color:#4776E6"/>
					<stop  offset="1" style="stop-color:#47CFE6"/>
				</linearGradient>
				<path style="fill:url(#SVGID_00000118388252395621652430000015631689155762771129_);" d="M281.865,266.33l12.211-17.06
					l17.108-23.902c-1.738-0.423-4.314-1.285-6.963-3.151c-4.198-2.957-6.186-6.75-7.006-8.605l-0.015,0.001
					c-0.933,0.049-1.793,0.519-2.339,1.278c-2.676,3.722-5.352,7.444-8.027,11.166c-6.934,9.645-13.867,19.289-20.801,28.934
					c-0.865,1.203-0.589,2.879,0.616,3.741l11.479,8.217C279.331,267.81,281.004,267.533,281.865,266.33z"/>
				
					<linearGradient id="SVGID_00000062877722870941522980000003092404735371850913_" gradientUnits="userSpaceOnUse" x1="-432.8433" y1="-974.3039" x2="-456.521" y2="-964.3485" gradientTransform="matrix(0.5153 0.857 -0.857 0.5153 -321.3652 1125.4845)">
					<stop  offset="0" style="stop-color:#4776E6"/>
					<stop  offset="1" style="stop-color:#47CFE6"/>
				</linearGradient>
				<path style="fill:url(#SVGID_00000062877722870941522980000003092404735371850913_);" d="M291.038,231.38
					c-0.937-2.219-2.252-4.207-4.204-5.323c-6.934,9.645-13.867,19.289-20.801,28.934c-0.865,1.203-0.589,2.879,0.616,3.741
					l11.479,8.217c1.203,0.861,2.875,0.584,3.737-0.619l12.211-17.06C291.189,245.077,293.802,236.821,291.038,231.38z"/>
				
					<linearGradient id="SVGID_00000103980037863970362180000006151424610810496689_" gradientUnits="userSpaceOnUse" x1="-462.9939" y1="-1010.5099" x2="-446.7564" y2="-997.0689" gradientTransform="matrix(0.5153 0.857 -0.857 0.5153 -321.3652 1125.4845)">
					<stop  offset="0" style="stop-color:#FFFFFF"/>
					<stop  offset="1" style="stop-color:#47CFE6"/>
				</linearGradient>
				<path style="fill:url(#SVGID_00000103980037863970362180000006151424610810496689_);" d="M311.242,223.652
					c0,0-10.783-1.507-14.041-10.039c0,0,5.756,2.402,12.2-6.838l4.378,3.134C313.779,209.909,307.454,216.943,311.242,223.652z"/>
				
					<linearGradient id="SVGID_00000089556948425260414720000011123602015132664226_" gradientUnits="userSpaceOnUse" x1="-459.6812" y1="-1019.0338" x2="-462.2522" y2="-1015.6735" gradientTransform="matrix(0.5153 0.857 -0.857 0.5153 -321.3652 1125.4845)">
					<stop  offset="0" style="stop-color:#4776E6"/>
					<stop  offset="1" style="stop-color:#645AE9"/>
				</linearGradient>
				<path style="fill:url(#SVGID_00000089556948425260414720000011123602015132664226_);" d="M312.067,204.269l-1.386,2.2
					l2.694,1.928l1.4-1.567c0.165-0.185,0.199-0.453,0.082-0.671c-0.143-0.266-0.329-0.557-0.568-0.852
					c-0.466-0.573-0.979-0.965-1.411-1.228C312.6,203.912,312.24,203.995,312.067,204.269z"/>
			</g>
			
				<linearGradient id="SVGID_00000112597943195844059540000001411166535002838172_" gradientUnits="userSpaceOnUse" x1="183.3162" y1="-270.2814" x2="173.1971" y2="-270.2814" gradientTransform="matrix(0.9334 0.3588 -0.3588 0.9334 13.4893 402.8265)">
				<stop  offset="0" style="stop-color:#4776E6"/>
				<stop  offset="0.0419" style="stop-color:#477FE6"/>
				<stop  offset="0.1937" style="stop-color:#479CE6"/>
				<stop  offset="0.3559" style="stop-color:#47B3E6"/>
				<stop  offset="0.5314" style="stop-color:#47C3E6"/>
				<stop  offset="0.7298" style="stop-color:#47CCE6"/>
				<stop  offset="1" style="stop-color:#47CFE6"/>
			</linearGradient>
			<path style="fill:url(#SVGID_00000112597943195844059540000001411166535002838172_);" d="M301.003,166.063l-10.972-3.747
				l-19.01,50.579l-18.675,49.688l3.166,1.284l7.577,3.072L301.003,166.063z M264.131,258.45c-0.149,0.397-0.543,0.625-0.88,0.51
				l-3.322-1.134c-0.337-0.115-0.489-0.53-0.34-0.926c0.149-0.396,0.543-0.625,0.879-0.51l3.322,1.135
				C264.127,257.639,264.279,258.054,264.131,258.45z M264.991,254.33l-3.322-1.134c-0.337-0.115-0.489-0.53-0.34-0.926
				c0.149-0.396,0.543-0.625,0.879-0.51l3.322,1.134c0.337,0.115,0.489,0.53,0.34,0.926
				C265.722,254.217,265.328,254.445,264.991,254.33z M266.738,249.682l-3.322-1.134c-0.337-0.115-0.489-0.529-0.34-0.926
				c0.149-0.396,0.543-0.625,0.879-0.51l3.322,1.134c0.337,0.115,0.489,0.53,0.34,0.926
				C267.468,249.569,267.075,249.797,266.738,249.682z M269.304,244.686c-0.149,0.396-0.543,0.625-0.879,0.51l-3.322-1.134
				c-0.337-0.115-0.489-0.53-0.34-0.926c0.149-0.396,0.543-0.625,0.879-0.51l3.322,1.134
				C269.3,243.875,269.452,244.29,269.304,244.686z M271.05,240.039c-0.127,0.337-0.461,0.531-0.747,0.433l-4.907-1.675
				c-0.286-0.098-0.415-0.45-0.289-0.787c0.127-0.337,0.461-0.531,0.747-0.433l4.907,1.676
				C271.048,239.35,271.177,239.702,271.05,240.039z M271.996,235.692l-3.322-1.134c-0.337-0.115-0.489-0.53-0.34-0.926
				c0.149-0.397,0.543-0.624,0.879-0.51l3.322,1.134c0.337,0.115,0.489,0.529,0.34,0.926
				C272.727,235.578,272.333,235.807,271.996,235.692z M273.736,231.062l-3.322-1.134c-0.337-0.115-0.489-0.529-0.34-0.926
				c0.149-0.396,0.543-0.625,0.879-0.51l3.322,1.134c0.337,0.115,0.489,0.53,0.34,0.926
				C274.467,230.949,274.073,231.177,273.736,231.062z M275.483,226.414l-3.322-1.134c-0.337-0.115-0.489-0.529-0.34-0.926
				c0.149-0.396,0.543-0.625,0.879-0.51l3.322,1.134c0.337,0.115,0.489,0.53,0.34,0.926
				C276.214,226.301,275.82,226.529,275.483,226.414z M277.169,221.928l-3.322-1.134c-0.337-0.115-0.489-0.529-0.34-0.926
				c0.149-0.396,0.543-0.625,0.879-0.51l3.322,1.134c0.337,0.115,0.489,0.529,0.34,0.926
				C277.9,221.815,277.506,222.043,277.169,221.928z M279.796,216.771c-0.127,0.337-0.461,0.531-0.747,0.433l-4.907-1.675
				c-0.286-0.098-0.415-0.45-0.289-0.787c0.127-0.337,0.461-0.531,0.747-0.433l4.907,1.676
				C279.793,216.081,279.922,216.434,279.796,216.771z M280.755,212.387l-3.322-1.134c-0.337-0.115-0.489-0.529-0.34-0.926
				c0.149-0.396,0.543-0.624,0.879-0.509l3.322,1.134c0.337,0.115,0.489,0.529,0.34,0.926
				C281.486,212.274,281.092,212.502,280.755,212.387z M282.495,207.758l-3.322-1.135c-0.337-0.115-0.489-0.529-0.34-0.926
				c0.149-0.396,0.543-0.625,0.879-0.51l3.322,1.134c0.337,0.115,0.489,0.529,0.34,0.926
				C283.226,207.645,282.832,207.872,282.495,207.758z M284.242,203.11l-3.322-1.134c-0.337-0.115-0.489-0.53-0.34-0.926
				c0.149-0.397,0.543-0.625,0.879-0.51l3.322,1.134c0.337,0.115,0.489,0.529,0.34,0.926
				C284.973,202.997,284.579,203.225,284.242,203.11z M285.928,198.624l-3.322-1.134c-0.337-0.115-0.489-0.53-0.34-0.926
				c0.149-0.396,0.543-0.625,0.879-0.51l3.322,1.134c0.337,0.115,0.489,0.53,0.34,0.926
				C286.659,198.51,286.265,198.739,285.928,198.624z M288.554,193.466c-0.127,0.337-0.461,0.531-0.747,0.433l-4.907-1.676
				c-0.286-0.098-0.415-0.45-0.289-0.787c0.127-0.337,0.461-0.531,0.747-0.433l4.907,1.676
				C288.552,192.777,288.681,193.13,288.554,193.466z M289.532,189.035l-3.322-1.134c-0.337-0.115-0.489-0.53-0.34-0.926
				c0.149-0.396,0.543-0.625,0.879-0.51l3.322,1.134c0.337,0.115,0.489,0.53,0.34,0.926
				C290.262,188.922,289.869,189.15,289.532,189.035z M291.272,184.406l-3.322-1.134c-0.337-0.115-0.489-0.53-0.34-0.926
				c0.149-0.396,0.543-0.625,0.879-0.51l3.322,1.134c0.337,0.115,0.489,0.53,0.34,0.926
				C292.003,184.292,291.609,184.52,291.272,184.406z M293.019,179.758l-3.322-1.134c-0.337-0.115-0.489-0.529-0.34-0.926
				c0.149-0.396,0.543-0.624,0.879-0.51l3.322,1.134c0.337,0.115,0.489,0.53,0.34,0.926
				C293.749,179.645,293.356,179.873,293.019,179.758z M294.705,175.271l-3.322-1.134c-0.337-0.115-0.489-0.53-0.34-0.926
				c0.149-0.397,0.543-0.624,0.879-0.51l3.322,1.134c0.337,0.115,0.489,0.529,0.34,0.926
				C295.435,175.158,295.042,175.387,294.705,175.271z M292.135,167.652l4.907,1.675c0.286,0.098,0.415,0.45,0.289,0.787
				c-0.127,0.337-0.461,0.531-0.747,0.433l-4.907-1.675c-0.286-0.098-0.415-0.45-0.289-0.787
				C291.515,167.748,291.849,167.554,292.135,167.652z M261.512,263.86l-4.907-1.676c-0.286-0.098-0.416-0.45-0.289-0.787
				c0.127-0.337,0.461-0.531,0.747-0.433l4.907,1.676c0.286,0.098,0.415,0.45,0.289,0.787
				C262.133,263.764,261.799,263.958,261.512,263.86z"/>
			<g>
				
					<linearGradient id="SVGID_00000014629644198682948100000014521546199366825118_" gradientUnits="userSpaceOnUse" x1="179.5902" y1="-309.2258" x2="176.011" y2="-309.2258" gradientTransform="matrix(0.9334 0.3588 -0.3588 0.9334 13.4893 402.8265)">
					<stop  offset="0" style="stop-color:#4776E6"/>
					<stop  offset="0.0419" style="stop-color:#477FE6"/>
					<stop  offset="0.1937" style="stop-color:#479CE6"/>
					<stop  offset="0.3559" style="stop-color:#47B3E6"/>
					<stop  offset="0.5314" style="stop-color:#47C3E6"/>
					<stop  offset="0.7298" style="stop-color:#47CCE6"/>
					<stop  offset="1" style="stop-color:#47CFE6"/>
				</linearGradient>
				<path style="fill:url(#SVGID_00000014629644198682948100000014521546199366825118_);" d="M288.585,178.186l0.907,0.31
					c-0.186-0.182-0.249-0.495-0.135-0.798c0.149-0.396,0.543-0.624,0.879-0.51l2.415,0.825c-0.057-0.056-0.125-0.101-0.205-0.128
					l-3.322-1.134c-0.337-0.115-0.73,0.113-0.879,0.51C288.096,177.656,288.249,178.071,288.585,178.186z"/>
				
					<linearGradient id="SVGID_00000005946058168604061570000000857493785572731830_" gradientUnits="userSpaceOnUse" x1="179.9997" y1="-254.4185" x2="176.4206" y2="-254.4185" gradientTransform="matrix(0.9334 0.3588 -0.3588 0.9334 13.4893 402.8265)">
					<stop  offset="0" style="stop-color:#4776E6"/>
					<stop  offset="0.0419" style="stop-color:#477FE6"/>
					<stop  offset="0.1937" style="stop-color:#479CE6"/>
					<stop  offset="0.3559" style="stop-color:#47B3E6"/>
					<stop  offset="0.5314" style="stop-color:#47C3E6"/>
					<stop  offset="0.7298" style="stop-color:#47CCE6"/>
					<stop  offset="1" style="stop-color:#47CFE6"/>
				</linearGradient>
				<path style="fill:url(#SVGID_00000005946058168604061570000000857493785572731830_);" d="M269.303,229.49l0.907,0.31
					c-0.186-0.182-0.249-0.495-0.135-0.798c0.149-0.396,0.543-0.625,0.879-0.51l2.415,0.825c-0.057-0.056-0.125-0.101-0.204-0.128
					l-3.322-1.134c-0.337-0.115-0.73,0.113-0.88,0.51C268.814,228.96,268.966,229.375,269.303,229.49z"/>
				
					<linearGradient id="SVGID_00000023970556888598717800000004652796587444324526_" gradientUnits="userSpaceOnUse" x1="179.9269" y1="-264.1761" x2="176.3478" y2="-264.1761" gradientTransform="matrix(0.9334 0.3588 -0.3588 0.9334 13.4893 402.8265)">
					<stop  offset="0" style="stop-color:#4776E6"/>
					<stop  offset="0.0419" style="stop-color:#477FE6"/>
					<stop  offset="0.1937" style="stop-color:#479CE6"/>
					<stop  offset="0.3559" style="stop-color:#47B3E6"/>
					<stop  offset="0.5314" style="stop-color:#47C3E6"/>
					<stop  offset="0.7298" style="stop-color:#47CCE6"/>
					<stop  offset="1" style="stop-color:#47CFE6"/>
				</linearGradient>
				<path style="fill:url(#SVGID_00000023970556888598717800000004652796587444324526_);" d="M273.275,218.92
					c-0.337-0.115-0.73,0.113-0.879,0.51c-0.149,0.396,0.003,0.811,0.34,0.926l0.907,0.31c-0.186-0.182-0.249-0.495-0.135-0.798
					c0.149-0.396,0.543-0.625,0.879-0.51l2.415,0.825c-0.057-0.056-0.125-0.101-0.205-0.128L273.275,218.92z"/>
				
					<linearGradient id="SVGID_00000076595361626162836450000000882799142363523224_" gradientUnits="userSpaceOnUse" x1="180.0369" y1="-249.4725" x2="176.4577" y2="-249.4725" gradientTransform="matrix(0.9334 0.3588 -0.3588 0.9334 13.4893 402.8265)">
					<stop  offset="0" style="stop-color:#4776E6"/>
					<stop  offset="0.0419" style="stop-color:#477FE6"/>
					<stop  offset="0.1937" style="stop-color:#479CE6"/>
					<stop  offset="0.3559" style="stop-color:#47B3E6"/>
					<stop  offset="0.5314" style="stop-color:#47C3E6"/>
					<stop  offset="0.7298" style="stop-color:#47CCE6"/>
					<stop  offset="1" style="stop-color:#47CFE6"/>
				</linearGradient>
				<path style="fill:url(#SVGID_00000076595361626162836450000000882799142363523224_);" d="M267.563,234.12l0.907,0.31
					c-0.186-0.182-0.249-0.495-0.135-0.798c0.149-0.397,0.543-0.624,0.879-0.51l2.415,0.825c-0.057-0.056-0.125-0.101-0.205-0.128
					l-3.322-1.134c-0.337-0.115-0.73,0.113-0.879,0.51C267.074,233.59,267.226,234.005,267.563,234.12z"/>
				
					<linearGradient id="SVGID_00000087390433982342789380000005831462637564323969_" gradientUnits="userSpaceOnUse" x1="179.5544" y1="-314.0183" x2="175.9753" y2="-314.0183" gradientTransform="matrix(0.9334 0.3588 -0.3588 0.9334 13.4893 402.8265)">
					<stop  offset="0" style="stop-color:#4776E6"/>
					<stop  offset="0.0419" style="stop-color:#477FE6"/>
					<stop  offset="0.1937" style="stop-color:#479CE6"/>
					<stop  offset="0.3559" style="stop-color:#47B3E6"/>
					<stop  offset="0.5314" style="stop-color:#47C3E6"/>
					<stop  offset="0.7298" style="stop-color:#47CCE6"/>
					<stop  offset="1" style="stop-color:#47CFE6"/>
				</linearGradient>
				<path style="fill:url(#SVGID_00000087390433982342789380000005831462637564323969_);" d="M290.271,173.7l0.907,0.31
					c-0.186-0.182-0.249-0.495-0.135-0.798c0.149-0.397,0.543-0.624,0.879-0.51l2.415,0.825c-0.057-0.056-0.125-0.101-0.205-0.128
					l-3.322-1.134c-0.337-0.115-0.73,0.113-0.88,0.51C289.783,173.17,289.935,173.585,290.271,173.7z"/>
				
					<linearGradient id="SVGID_00000159431043148442953560000013300958710040201381_" gradientUnits="userSpaceOnUse" x1="179.9628" y1="-259.3836" x2="176.3836" y2="-259.3836" gradientTransform="matrix(0.9334 0.3588 -0.3588 0.9334 13.4893 402.8265)">
					<stop  offset="0" style="stop-color:#4776E6"/>
					<stop  offset="0.0419" style="stop-color:#477FE6"/>
					<stop  offset="0.1937" style="stop-color:#479CE6"/>
					<stop  offset="0.3559" style="stop-color:#47B3E6"/>
					<stop  offset="0.5314" style="stop-color:#47C3E6"/>
					<stop  offset="0.7298" style="stop-color:#47CCE6"/>
					<stop  offset="1" style="stop-color:#47CFE6"/>
				</linearGradient>
				<path style="fill:url(#SVGID_00000159431043148442953560000013300958710040201381_);" d="M271.05,224.842l0.907,0.31
					c-0.186-0.182-0.249-0.495-0.135-0.798c0.149-0.396,0.543-0.625,0.879-0.51l2.415,0.825c-0.057-0.056-0.125-0.101-0.205-0.128
					l-3.322-1.134c-0.337-0.115-0.73,0.114-0.879,0.51C270.561,224.313,270.713,224.727,271.05,224.842z"/>
				
					<linearGradient id="SVGID_00000106840928367805159810000008457663328200738740_" gradientUnits="userSpaceOnUse" x1="180.2225" y1="-224.6158" x2="176.6434" y2="-224.6158" gradientTransform="matrix(0.9334 0.3588 -0.3588 0.9334 13.4893 402.8265)">
					<stop  offset="0" style="stop-color:#4776E6"/>
					<stop  offset="0.0419" style="stop-color:#477FE6"/>
					<stop  offset="0.1937" style="stop-color:#479CE6"/>
					<stop  offset="0.3559" style="stop-color:#47B3E6"/>
					<stop  offset="0.5314" style="stop-color:#47C3E6"/>
					<stop  offset="0.7298" style="stop-color:#47CCE6"/>
					<stop  offset="1" style="stop-color:#47CFE6"/>
				</linearGradient>
				<path style="fill:url(#SVGID_00000106840928367805159810000008457663328200738740_);" d="M258.818,257.388l0.907,0.31
					c-0.186-0.182-0.249-0.495-0.135-0.798c0.149-0.396,0.543-0.625,0.879-0.51l2.415,0.825c-0.057-0.056-0.125-0.101-0.204-0.128
					l-3.322-1.134c-0.337-0.115-0.73,0.113-0.879,0.51S258.481,257.273,258.818,257.388z"/>
				
					<linearGradient id="SVGID_00000150785345906037783000000002733358793486308764_" gradientUnits="userSpaceOnUse" x1="180.1126" y1="-239.3193" x2="176.5335" y2="-239.3193" gradientTransform="matrix(0.9334 0.3588 -0.3588 0.9334 13.4893 402.8265)">
					<stop  offset="0" style="stop-color:#4776E6"/>
					<stop  offset="0.0419" style="stop-color:#477FE6"/>
					<stop  offset="0.1937" style="stop-color:#479CE6"/>
					<stop  offset="0.3559" style="stop-color:#47B3E6"/>
					<stop  offset="0.5314" style="stop-color:#47C3E6"/>
					<stop  offset="0.7298" style="stop-color:#47CCE6"/>
					<stop  offset="1" style="stop-color:#47CFE6"/>
				</linearGradient>
				<path style="fill:url(#SVGID_00000150785345906037783000000002733358793486308764_);" d="M264.53,242.188
					c-0.337-0.115-0.73,0.113-0.879,0.51s0.003,0.811,0.34,0.926l0.907,0.31c-0.186-0.182-0.249-0.495-0.135-0.798
					c0.149-0.396,0.543-0.625,0.879-0.51l2.415,0.825c-0.057-0.056-0.125-0.101-0.205-0.128L264.53,242.188z"/>
				
					<linearGradient id="SVGID_00000069359686212680119670000012661409747729350586_" gradientUnits="userSpaceOnUse" x1="180.1485" y1="-234.5268" x2="176.5694" y2="-234.5268" gradientTransform="matrix(0.9334 0.3588 -0.3588 0.9334 13.4893 402.8265)">
					<stop  offset="0" style="stop-color:#4776E6"/>
					<stop  offset="0.0419" style="stop-color:#477FE6"/>
					<stop  offset="0.1937" style="stop-color:#479CE6"/>
					<stop  offset="0.3559" style="stop-color:#47B3E6"/>
					<stop  offset="0.5314" style="stop-color:#47C3E6"/>
					<stop  offset="0.7298" style="stop-color:#47CCE6"/>
					<stop  offset="1" style="stop-color:#47CFE6"/>
				</linearGradient>
				<path style="fill:url(#SVGID_00000069359686212680119670000012661409747729350586_);" d="M262.305,248.11l0.907,0.31
					c-0.186-0.182-0.249-0.495-0.135-0.798c0.149-0.396,0.543-0.625,0.879-0.51l2.415,0.825c-0.057-0.056-0.125-0.101-0.205-0.128
					l-3.322-1.134c-0.337-0.115-0.73,0.113-0.879,0.51C261.815,247.581,261.968,247.995,262.305,248.11z"/>
				
					<linearGradient id="SVGID_00000179625816056403522980000016046506191799448214_" gradientUnits="userSpaceOnUse" x1="180.1855" y1="-229.5618" x2="176.6064" y2="-229.5618" gradientTransform="matrix(0.9334 0.3588 -0.3588 0.9334 13.4893 402.8265)">
					<stop  offset="0" style="stop-color:#4776E6"/>
					<stop  offset="0.0419" style="stop-color:#477FE6"/>
					<stop  offset="0.1937" style="stop-color:#479CE6"/>
					<stop  offset="0.3559" style="stop-color:#47B3E6"/>
					<stop  offset="0.5314" style="stop-color:#47C3E6"/>
					<stop  offset="0.7298" style="stop-color:#47CCE6"/>
					<stop  offset="1" style="stop-color:#47CFE6"/>
				</linearGradient>
				<path style="fill:url(#SVGID_00000179625816056403522980000016046506191799448214_);" d="M260.557,252.758l0.907,0.31
					c-0.186-0.182-0.249-0.495-0.135-0.798c0.149-0.396,0.543-0.625,0.879-0.51l2.415,0.825c-0.057-0.056-0.125-0.101-0.204-0.128
					l-3.322-1.134c-0.337-0.115-0.73,0.113-0.88,0.51C260.069,252.228,260.221,252.643,260.557,252.758z"/>
				
					<linearGradient id="SVGID_00000183249019629431656060000016599178884160526266_" gradientUnits="userSpaceOnUse" x1="184.0785" y1="-270.2814" x2="182.4456" y2="-270.2814" gradientTransform="matrix(0.9334 0.3588 -0.3588 0.9334 13.4893 402.8265)">
					<stop  offset="0" style="stop-color:#4776E6"/>
					<stop  offset="0.0419" style="stop-color:#477FE6"/>
					<stop  offset="0.1937" style="stop-color:#479CE6"/>
					<stop  offset="0.3559" style="stop-color:#47B3E6"/>
					<stop  offset="0.5314" style="stop-color:#47C3E6"/>
					<stop  offset="0.7298" style="stop-color:#47CCE6"/>
					<stop  offset="1" style="stop-color:#47CFE6"/>
				</linearGradient>
				<polygon style="fill:url(#SVGID_00000183249019629431656060000016599178884160526266_);" points="261.982,266.491 
					263.089,266.939 301.003,166.063 299.872,165.677 				"/>
				
					<linearGradient id="SVGID_00000181057593156896892460000000454532504515538848_" gradientUnits="userSpaceOnUse" x1="179.8551" y1="-269.113" x2="175.0019" y2="-269.113" gradientTransform="matrix(0.9334 0.3588 -0.3588 0.9334 13.4893 402.8265)">
					<stop  offset="0" style="stop-color:#4776E6"/>
					<stop  offset="0.0419" style="stop-color:#477FE6"/>
					<stop  offset="0.1937" style="stop-color:#479CE6"/>
					<stop  offset="0.3559" style="stop-color:#47B3E6"/>
					<stop  offset="0.5314" style="stop-color:#47C3E6"/>
					<stop  offset="0.7298" style="stop-color:#47CCE6"/>
					<stop  offset="1" style="stop-color:#47CFE6"/>
				</linearGradient>
				<path style="fill:url(#SVGID_00000181057593156896892460000000454532504515538848_);" d="M273.03,215.091l0.924,0.315
					c-0.147-0.157-0.195-0.415-0.101-0.665c0.127-0.337,0.461-0.531,0.747-0.433l3.983,1.36c-0.051-0.054-0.114-0.097-0.188-0.122
					l-4.907-1.676c-0.286-0.098-0.621,0.096-0.747,0.433C272.614,214.641,272.743,214.993,273.03,215.091z"/>
				
					<linearGradient id="SVGID_00000142892484534385329980000014003639258274858628_" gradientUnits="userSpaceOnUse" x1="179.6693" y1="-294.0087" x2="174.8159" y2="-294.0087" gradientTransform="matrix(0.9334 0.3588 -0.3588 0.9334 13.4893 402.8265)">
					<stop  offset="0" style="stop-color:#4776E6"/>
					<stop  offset="0.0419" style="stop-color:#477FE6"/>
					<stop  offset="0.1937" style="stop-color:#479CE6"/>
					<stop  offset="0.3559" style="stop-color:#47B3E6"/>
					<stop  offset="0.5314" style="stop-color:#47C3E6"/>
					<stop  offset="0.7298" style="stop-color:#47CCE6"/>
					<stop  offset="1" style="stop-color:#47CFE6"/>
				</linearGradient>
				<path style="fill:url(#SVGID_00000142892484534385329980000014003639258274858628_);" d="M281.788,191.786l0.924,0.315
					c-0.147-0.157-0.195-0.415-0.101-0.665c0.127-0.337,0.461-0.531,0.747-0.433l3.984,1.36c-0.051-0.055-0.114-0.097-0.188-0.123
					l-4.907-1.675c-0.286-0.098-0.621,0.096-0.747,0.433C281.373,191.336,281.502,191.689,281.788,191.786z"/>
				
					<linearGradient id="SVGID_00000132062042708461481630000002143971346288677297_" gradientUnits="userSpaceOnUse" x1="179.6273" y1="-304.2608" x2="176.0482" y2="-304.2608" gradientTransform="matrix(0.9334 0.3588 -0.3588 0.9334 13.4893 402.8265)">
					<stop  offset="0" style="stop-color:#4776E6"/>
					<stop  offset="0.0419" style="stop-color:#477FE6"/>
					<stop  offset="0.1937" style="stop-color:#479CE6"/>
					<stop  offset="0.3559" style="stop-color:#47B3E6"/>
					<stop  offset="0.5314" style="stop-color:#47C3E6"/>
					<stop  offset="0.7298" style="stop-color:#47CCE6"/>
					<stop  offset="1" style="stop-color:#47CFE6"/>
				</linearGradient>
				<path style="fill:url(#SVGID_00000132062042708461481630000002143971346288677297_);" d="M286.839,182.833l0.907,0.31
					c-0.186-0.182-0.249-0.495-0.135-0.798c0.149-0.396,0.543-0.625,0.879-0.51l2.415,0.825c-0.057-0.056-0.125-0.101-0.205-0.128
					l-3.322-1.134c-0.337-0.115-0.73,0.113-0.879,0.51C286.35,182.304,286.502,182.719,286.839,182.833z"/>
				
					<linearGradient id="SVGID_00000065068271273703326840000010297770097178244241_" gradientUnits="userSpaceOnUse" x1="180.0409" y1="-244.2563" x2="175.1877" y2="-244.2563" gradientTransform="matrix(0.9334 0.3588 -0.3588 0.9334 13.4893 402.8265)">
					<stop  offset="0" style="stop-color:#4776E6"/>
					<stop  offset="0.0419" style="stop-color:#477FE6"/>
					<stop  offset="0.1937" style="stop-color:#479CE6"/>
					<stop  offset="0.3559" style="stop-color:#47B3E6"/>
					<stop  offset="0.5314" style="stop-color:#47C3E6"/>
					<stop  offset="0.7298" style="stop-color:#47CCE6"/>
					<stop  offset="1" style="stop-color:#47CFE6"/>
				</linearGradient>
				<path style="fill:url(#SVGID_00000065068271273703326840000010297770097178244241_);" d="M264.284,238.359l0.924,0.315
					c-0.147-0.157-0.195-0.415-0.101-0.665c0.127-0.337,0.461-0.531,0.747-0.433l3.983,1.36c-0.051-0.054-0.114-0.097-0.188-0.122
					l-4.907-1.676c-0.286-0.098-0.621,0.096-0.747,0.433C263.869,237.909,263.998,238.261,264.284,238.359z"/>
				
					<linearGradient id="SVGID_00000163031720948524898470000001338986684756941501_" gradientUnits="userSpaceOnUse" x1="180.2278" y1="-219.2708" x2="175.3744" y2="-219.2708" gradientTransform="matrix(0.9334 0.3588 -0.3588 0.9334 13.4893 402.8265)">
					<stop  offset="0" style="stop-color:#4776E6"/>
					<stop  offset="0.0419" style="stop-color:#477FE6"/>
					<stop  offset="0.1937" style="stop-color:#479CE6"/>
					<stop  offset="0.3559" style="stop-color:#47B3E6"/>
					<stop  offset="0.5314" style="stop-color:#47C3E6"/>
					<stop  offset="0.7298" style="stop-color:#47CCE6"/>
					<stop  offset="1" style="stop-color:#47CFE6"/>
				</linearGradient>
				<path style="fill:url(#SVGID_00000163031720948524898470000001338986684756941501_);" d="M255.494,261.747l0.923,0.315
					c-0.147-0.157-0.195-0.415-0.101-0.664c0.127-0.337,0.461-0.531,0.747-0.433l3.984,1.36c-0.051-0.055-0.114-0.097-0.188-0.122
					l-4.907-1.676c-0.286-0.098-0.621,0.096-0.747,0.433C255.078,261.297,255.208,261.649,255.494,261.747z"/>
				
					<linearGradient id="SVGID_00000074430151082525663730000011828829153933080718_" gradientUnits="userSpaceOnUse" x1="179.4827" y1="-318.9553" x2="174.6293" y2="-318.9553" gradientTransform="matrix(0.9334 0.3588 -0.3588 0.9334 13.4893 402.8265)">
					<stop  offset="0" style="stop-color:#4776E6"/>
					<stop  offset="0.0419" style="stop-color:#477FE6"/>
					<stop  offset="0.1937" style="stop-color:#479CE6"/>
					<stop  offset="0.3559" style="stop-color:#47B3E6"/>
					<stop  offset="0.5314" style="stop-color:#47C3E6"/>
					<stop  offset="0.7298" style="stop-color:#47CCE6"/>
					<stop  offset="1" style="stop-color:#47CFE6"/>
				</linearGradient>
				<path style="fill:url(#SVGID_00000074430151082525663730000011828829153933080718_);" d="M291.024,167.214
					c-0.286-0.098-0.621,0.096-0.747,0.433c-0.127,0.337,0.003,0.689,0.289,0.787l0.924,0.315c-0.147-0.157-0.195-0.415-0.101-0.665
					c0.127-0.337,0.461-0.531,0.747-0.433l3.984,1.36c-0.051-0.055-0.114-0.097-0.188-0.122L291.024,167.214z"/>
				
					<linearGradient id="SVGID_00000160163579336750916690000004843754986634745741_" gradientUnits="userSpaceOnUse" x1="179.6643" y1="-299.3148" x2="176.0852" y2="-299.3148" gradientTransform="matrix(0.9334 0.3588 -0.3588 0.9334 13.4893 402.8265)">
					<stop  offset="0" style="stop-color:#4776E6"/>
					<stop  offset="0.0419" style="stop-color:#477FE6"/>
					<stop  offset="0.1937" style="stop-color:#479CE6"/>
					<stop  offset="0.3559" style="stop-color:#47B3E6"/>
					<stop  offset="0.5314" style="stop-color:#47C3E6"/>
					<stop  offset="0.7298" style="stop-color:#47CCE6"/>
					<stop  offset="1" style="stop-color:#47CFE6"/>
				</linearGradient>
				<path style="fill:url(#SVGID_00000160163579336750916690000004843754986634745741_);" d="M285.098,187.463l0.907,0.31
					c-0.186-0.182-0.249-0.495-0.135-0.798c0.149-0.396,0.543-0.625,0.879-0.51l2.415,0.825c-0.057-0.056-0.125-0.101-0.205-0.128
					l-3.322-1.134c-0.337-0.115-0.73,0.113-0.879,0.51C284.61,186.934,284.762,187.348,285.098,187.463z"/>
				
					<linearGradient id="SVGID_00000038412494548579279360000011475862444452170407_" gradientUnits="userSpaceOnUse" x1="179.7407" y1="-289.0716" x2="176.1617" y2="-289.0716" gradientTransform="matrix(0.9334 0.3588 -0.3588 0.9334 13.4893 402.8265)">
					<stop  offset="0" style="stop-color:#4776E6"/>
					<stop  offset="0.0419" style="stop-color:#477FE6"/>
					<stop  offset="0.1937" style="stop-color:#479CE6"/>
					<stop  offset="0.3559" style="stop-color:#47B3E6"/>
					<stop  offset="0.5314" style="stop-color:#47C3E6"/>
					<stop  offset="0.7298" style="stop-color:#47CCE6"/>
					<stop  offset="1" style="stop-color:#47CFE6"/>
				</linearGradient>
				<path style="fill:url(#SVGID_00000038412494548579279360000011475862444452170407_);" d="M281.495,197.052l0.907,0.31
					c-0.186-0.182-0.249-0.495-0.135-0.798c0.149-0.396,0.543-0.625,0.879-0.51l2.415,0.825c-0.057-0.056-0.125-0.101-0.205-0.128
					l-3.322-1.134c-0.337-0.115-0.73,0.113-0.879,0.51C281.006,196.522,281.158,196.937,281.495,197.052z"/>
				
					<linearGradient id="SVGID_00000125576864837738295820000010994795251420931519_" gradientUnits="userSpaceOnUse" x1="179.8137" y1="-279.3141" x2="176.2346" y2="-279.3141" gradientTransform="matrix(0.9334 0.3588 -0.3588 0.9334 13.4893 402.8265)">
					<stop  offset="0" style="stop-color:#4776E6"/>
					<stop  offset="0.0419" style="stop-color:#477FE6"/>
					<stop  offset="0.1937" style="stop-color:#479CE6"/>
					<stop  offset="0.3559" style="stop-color:#47B3E6"/>
					<stop  offset="0.5314" style="stop-color:#47C3E6"/>
					<stop  offset="0.7298" style="stop-color:#47CCE6"/>
					<stop  offset="1" style="stop-color:#47CFE6"/>
				</linearGradient>
				<path style="fill:url(#SVGID_00000125576864837738295820000010994795251420931519_);" d="M278.062,206.186l0.907,0.31
					c-0.186-0.182-0.249-0.495-0.135-0.798c0.149-0.396,0.543-0.625,0.879-0.51l2.415,0.825c-0.057-0.056-0.125-0.101-0.205-0.128
					l-3.322-1.134c-0.337-0.115-0.73,0.113-0.879,0.51C277.573,205.656,277.725,206.071,278.062,206.186z"/>
				
					<linearGradient id="SVGID_00000067934489062247664470000011580168009726224772_" gradientUnits="userSpaceOnUse" x1="179.7767" y1="-284.2791" x2="176.1975" y2="-284.2791" gradientTransform="matrix(0.9334 0.3588 -0.3588 0.9334 13.4893 402.8265)">
					<stop  offset="0" style="stop-color:#4776E6"/>
					<stop  offset="0.0419" style="stop-color:#477FE6"/>
					<stop  offset="0.1937" style="stop-color:#479CE6"/>
					<stop  offset="0.3559" style="stop-color:#47B3E6"/>
					<stop  offset="0.5314" style="stop-color:#47C3E6"/>
					<stop  offset="0.7298" style="stop-color:#47CCE6"/>
					<stop  offset="1" style="stop-color:#47CFE6"/>
				</linearGradient>
				<path style="fill:url(#SVGID_00000067934489062247664470000011580168009726224772_);" d="M279.809,201.538l0.907,0.31
					c-0.186-0.182-0.249-0.495-0.135-0.798c0.149-0.397,0.543-0.625,0.879-0.51l2.415,0.825c-0.057-0.056-0.125-0.101-0.205-0.128
					l-3.322-1.134c-0.337-0.115-0.73,0.113-0.879,0.51C279.32,201.008,279.472,201.423,279.809,201.538z"/>
				
					<linearGradient id="SVGID_00000094589964433089902160000002746834639666538371_" gradientUnits="userSpaceOnUse" x1="179.8507" y1="-274.3682" x2="176.2716" y2="-274.3682" gradientTransform="matrix(0.9334 0.3588 -0.3588 0.9334 13.4893 402.8265)">
					<stop  offset="0" style="stop-color:#4776E6"/>
					<stop  offset="0.0419" style="stop-color:#477FE6"/>
					<stop  offset="0.1937" style="stop-color:#479CE6"/>
					<stop  offset="0.3559" style="stop-color:#47B3E6"/>
					<stop  offset="0.5314" style="stop-color:#47C3E6"/>
					<stop  offset="0.7298" style="stop-color:#47CCE6"/>
					<stop  offset="1" style="stop-color:#47CFE6"/>
				</linearGradient>
				<path style="fill:url(#SVGID_00000094589964433089902160000002746834639666538371_);" d="M276.322,210.815l0.907,0.31
					c-0.186-0.182-0.249-0.495-0.135-0.798c0.149-0.396,0.543-0.624,0.879-0.509l2.415,0.825c-0.057-0.056-0.125-0.101-0.205-0.128
					l-3.322-1.134c-0.337-0.115-0.73,0.113-0.879,0.509C275.833,210.286,275.985,210.7,276.322,210.815z"/>
			</g>
			<g>
				<path style="fill:#FFFFFF;" d="M297.331,170.114c0.127-0.337-0.003-0.689-0.289-0.787l-4.907-1.676
					c-0.286-0.098-0.621,0.096-0.747,0.433c-0.127,0.337,0.003,0.689,0.289,0.787l4.907,1.675
					C296.87,170.645,297.205,170.451,297.331,170.114z"/>
				<path style="fill:#FFFFFF;" d="M295.245,173.836l-3.322-1.134c-0.337-0.115-0.73,0.113-0.879,0.51
					c-0.149,0.396,0.003,0.811,0.34,0.926l3.322,1.134c0.337,0.115,0.73-0.113,0.879-0.51
					C295.733,174.365,295.581,173.951,295.245,173.836z"/>
				<path style="fill:#FFFFFF;" d="M293.559,178.322l-3.322-1.134c-0.337-0.115-0.73,0.113-0.879,0.51
					c-0.149,0.397,0.003,0.811,0.34,0.926l3.322,1.134c0.337,0.115,0.73-0.113,0.88-0.51
					C294.047,178.852,293.895,178.437,293.559,178.322z"/>
				<path style="fill:#FFFFFF;" d="M291.812,182.97l-3.322-1.134c-0.337-0.115-0.73,0.113-0.879,0.51
					c-0.149,0.396,0.003,0.811,0.34,0.926l3.322,1.134c0.337,0.115,0.73-0.113,0.879-0.51
					C292.301,183.499,292.148,183.085,291.812,182.97z"/>
				<path style="fill:#FFFFFF;" d="M290.072,187.6l-3.322-1.134c-0.337-0.115-0.73,0.113-0.879,0.51
					c-0.149,0.396,0.003,0.811,0.34,0.926l3.322,1.134c0.337,0.115,0.73-0.113,0.879-0.509
					C290.56,188.129,290.408,187.715,290.072,187.6z"/>
				<path style="fill:#FFFFFF;" d="M288.554,193.466c0.127-0.337-0.003-0.689-0.289-0.787l-4.907-1.676
					c-0.286-0.098-0.621,0.096-0.747,0.433c-0.127,0.337,0.003,0.689,0.289,0.787l4.907,1.676
					C288.093,193.997,288.428,193.803,288.554,193.466z"/>
				<path style="fill:#FFFFFF;" d="M286.468,197.188l-3.322-1.134c-0.337-0.115-0.73,0.113-0.879,0.51
					c-0.149,0.396,0.003,0.811,0.34,0.926l3.322,1.134c0.337,0.115,0.73-0.113,0.879-0.51
					C286.957,197.718,286.804,197.303,286.468,197.188z"/>
				<path style="fill:#FFFFFF;" d="M284.782,201.674l-3.322-1.134c-0.337-0.115-0.73,0.113-0.879,0.51
					c-0.149,0.396,0.003,0.811,0.34,0.926l3.322,1.134c0.337,0.115,0.73-0.113,0.879-0.51
					C285.271,202.204,285.118,201.789,284.782,201.674z"/>
				<path style="fill:#FFFFFF;" d="M283.035,206.322l-3.322-1.134c-0.337-0.115-0.73,0.113-0.88,0.51
					c-0.149,0.396,0.003,0.811,0.34,0.926l3.322,1.135c0.337,0.115,0.73-0.113,0.879-0.51
					C283.524,206.852,283.371,206.437,283.035,206.322z"/>
				<path style="fill:#FFFFFF;" d="M281.295,210.952l-3.322-1.134c-0.337-0.115-0.73,0.113-0.879,0.509
					c-0.149,0.397,0.003,0.811,0.34,0.926l3.322,1.134c0.337,0.115,0.73-0.113,0.879-0.51
					C281.783,211.481,281.631,211.067,281.295,210.952z"/>
				<path style="fill:#FFFFFF;" d="M279.796,216.771c0.127-0.337-0.003-0.689-0.289-0.787l-4.907-1.676
					c-0.286-0.098-0.621,0.096-0.747,0.433c-0.127,0.337,0.003,0.689,0.289,0.787l4.907,1.675
					C279.334,217.302,279.669,217.108,279.796,216.771z"/>
				<path style="fill:#FFFFFF;" d="M277.709,220.492l-3.322-1.134c-0.337-0.115-0.73,0.113-0.879,0.51
					c-0.149,0.396,0.003,0.811,0.34,0.926l3.322,1.134c0.337,0.115,0.73-0.113,0.879-0.51
					C278.198,221.022,278.046,220.607,277.709,220.492z"/>
				<path style="fill:#FFFFFF;" d="M276.023,224.979l-3.322-1.134c-0.337-0.115-0.73,0.113-0.879,0.51
					c-0.149,0.396,0.003,0.811,0.34,0.926l3.322,1.134c0.337,0.115,0.73-0.113,0.879-0.509
					C276.512,225.508,276.359,225.094,276.023,224.979z"/>
				<path style="fill:#FFFFFF;" d="M274.276,229.626l-3.322-1.134c-0.337-0.115-0.73,0.113-0.879,0.51
					c-0.149,0.396,0.003,0.811,0.34,0.926l3.322,1.134c0.337,0.115,0.73-0.113,0.879-0.51
					C274.765,230.156,274.613,229.741,274.276,229.626z"/>
				<path style="fill:#FFFFFF;" d="M272.536,234.256l-3.322-1.134c-0.337-0.115-0.73,0.113-0.879,0.51
					c-0.149,0.396,0.003,0.811,0.34,0.926l3.322,1.134c0.337,0.115,0.73-0.113,0.879-0.51
					C273.025,234.786,272.872,234.371,272.536,234.256z"/>
				<path style="fill:#FFFFFF;" d="M271.05,240.039c0.127-0.337-0.003-0.689-0.289-0.787l-4.907-1.675
					c-0.286-0.098-0.621,0.096-0.747,0.433c-0.127,0.337,0.003,0.689,0.289,0.787l4.907,1.676
					C270.589,240.57,270.924,240.376,271.05,240.039z"/>
				<path style="fill:#FFFFFF;" d="M268.964,243.76l-3.322-1.134c-0.337-0.115-0.73,0.113-0.879,0.51
					c-0.149,0.396,0.003,0.811,0.34,0.926l3.322,1.134c0.337,0.115,0.73-0.113,0.879-0.51
					C269.452,244.29,269.3,243.875,268.964,243.76z"/>
				<path style="fill:#FFFFFF;" d="M267.278,248.247l-3.322-1.134c-0.337-0.115-0.73,0.113-0.879,0.51
					c-0.149,0.396,0.003,0.811,0.34,0.926l3.322,1.134c0.337,0.115,0.73-0.113,0.879-0.509
					C267.766,248.776,267.614,248.361,267.278,248.247z"/>
				<path style="fill:#FFFFFF;" d="M265.531,252.894l-3.322-1.134c-0.337-0.115-0.73,0.113-0.879,0.51
					c-0.149,0.396,0.003,0.811,0.34,0.926l3.322,1.134c0.337,0.115,0.73-0.113,0.879-0.51
					C266.02,253.424,265.867,253.009,265.531,252.894z"/>
				<path style="fill:#FFFFFF;" d="M263.791,257.524l-3.322-1.134c-0.337-0.115-0.73,0.113-0.879,0.51
					c-0.149,0.396,0.003,0.811,0.34,0.926l3.322,1.134c0.337,0.115,0.73-0.113,0.879-0.51
					C264.279,258.054,264.127,257.639,263.791,257.524z"/>
				<path style="fill:#FFFFFF;" d="M256.605,262.185l4.907,1.676c0.286,0.098,0.621-0.096,0.747-0.433
					c0.127-0.337-0.003-0.689-0.289-0.787l-4.907-1.676c-0.286-0.098-0.621,0.096-0.747,0.433
					C256.19,261.735,256.319,262.087,256.605,262.185z"/>
			</g>
		</g>
		<g>
			
				<linearGradient id="SVGID_00000077284451894030362520000007979239774158499263_" gradientUnits="userSpaceOnUse" x1="223.8835" y1="49.0955" x2="214.0779" y2="51.093" gradientTransform="matrix(0.9948 0.1014 -0.1014 0.9948 18.9606 128.1714)">
				<stop  offset="0" style="stop-color:#4776E6"/>
				<stop  offset="1" style="stop-color:#47CFE6"/>
			</linearGradient>
			<path style="fill:url(#SVGID_00000077284451894030362520000007979239774158499263_);" d="M229.373,174.23
				c-0.693-0.299-1.386-0.599-2.078-0.898c-0.383,0.706-0.766,1.413-1.148,2.119c-0.581-0.44-1.163-0.88-1.744-1.321l9.6,48.629
				c2.275,1.537,4.693,5.287,6.888,3.498c0.055-0.045,0.111-0.092,0.168-0.138c-3.491-17.686-6.983-35.373-10.474-53.059
				C230.18,173.45,229.777,173.84,229.373,174.23z"/>
			
				<linearGradient id="SVGID_00000130629018865672411490000002307420658165739419_" gradientUnits="userSpaceOnUse" x1="231.1897" y1="68.3608" x2="218.0345" y2="71.0405" gradientTransform="matrix(0.9948 0.1014 -0.1014 0.9948 18.9606 128.1714)">
				<stop  offset="0" style="stop-color:#4776E6"/>
				<stop  offset="1" style="stop-color:#47CFE6"/>
			</linearGradient>
			<path style="fill:url(#SVGID_00000130629018865672411490000002307420658165739419_);" d="M241.058,226.119
				c-3.491-17.686-6.983-35.373-10.474-53.059c-0.403,0.39-0.807,0.78-1.21,1.17c-0.693-0.299-1.386-0.599-2.078-0.898
				c-0.383,0.706-0.766,1.413-1.148,2.119c-0.581-0.44-1.163-0.88-1.744-1.321l9.6,48.629l8.792,44.538l6.181-1.07
				C246.336,252.858,243.697,239.488,241.058,226.119z"/>
			
				<linearGradient id="SVGID_00000056421074425840465360000014020957456157209236_" gradientUnits="userSpaceOnUse" x1="231.1447" y1="68.14" x2="217.9895" y2="70.8197" gradientTransform="matrix(0.9948 0.1014 -0.1014 0.9948 18.9606 128.1714)">
				<stop  offset="0" style="stop-color:#4776E6"/>
				<stop  offset="1" style="stop-color:#47CFE6"/>
			</linearGradient>
			<path style="opacity:0.2;fill:url(#SVGID_00000056421074425840465360000014020957456157209236_);" d="M226.476,177.195
				c0.383-0.706,0.766-1.413,1.148-2.119c0.693,0.299,1.385,0.599,2.078,0.898c0.403-0.39,0.807-0.78,1.21-1.17
				c3.491,17.686,6.983,35.373,10.474,53.059c2.525,12.789,5.049,25.578,7.574,38.367l0.015-0.003
				c-2.639-13.369-5.278-26.739-7.918-40.108c-3.491-17.686-6.983-35.373-10.474-53.059c-0.403,0.39-0.807,0.78-1.21,1.17
				c-0.693-0.299-1.386-0.599-2.078-0.898c-0.383,0.706-0.766,1.413-1.148,2.119c-0.581-0.44-1.163-0.88-1.744-1.321l0.347,1.757
				C225.325,176.323,225.9,176.759,226.476,177.195z"/>
			
				<linearGradient id="SVGID_00000170244789913991279010000015694974929072129193_" gradientUnits="userSpaceOnUse" x1="236.861" y1="92.6432" x2="227.767" y2="94.4957" gradientTransform="matrix(0.9948 0.1014 -0.1014 0.9948 18.9606 128.1714)">
				<stop  offset="0" style="stop-color:#4776E6"/>
				<stop  offset="1" style="stop-color:#47CFE6"/>
			</linearGradient>
			<path style="opacity:0.5;fill:url(#SVGID_00000170244789913991279010000015694974929072129193_);" d="M234.002,222.759
				l8.792,44.538l6.181-1.07c-2.639-13.369-5.278-26.739-7.918-40.108c-0.056,0.046-0.112,0.093-0.168,0.138
				C238.695,228.046,236.277,224.296,234.002,222.759z"/>
			
				<linearGradient id="SVGID_00000168811497566855280650000004841739327787063966_" gradientUnits="userSpaceOnUse" x1="208.1773" y1="18.1238" x2="216.2446" y2="27.7315" gradientTransform="matrix(0.9948 0.1014 -0.1014 0.9948 18.9606 128.1714)">
				<stop  offset="0" style="stop-color:#FFFFFF"/>
				<stop  offset="1" style="stop-color:#47CFE6"/>
			</linearGradient>
			<polygon style="fill:url(#SVGID_00000168811497566855280650000004841739327787063966_);" points="224.166,172.93 
				225.628,173.885 227.155,171.882 228.839,172.899 230.302,171.635 227.267,166.102 224.995,166.495 			"/>
			
				<linearGradient id="SVGID_00000072268730504648306130000017252433118665853882_" gradientUnits="userSpaceOnUse" x1="230.2579" y1="-4.323" x2="233.0807" y2="-1.398" gradientTransform="matrix(0.9986 0.0536 -0.0536 0.9986 -3.8618 163.0872)">
				<stop  offset="0" style="stop-color:#FFFFFF"/>
				<stop  offset="1" style="stop-color:#47CFE6"/>
			</linearGradient>
			<polygon style="fill:url(#SVGID_00000072268730504648306130000017252433118665853882_);" points="230.007,171.097 
				228.664,172.256 226.98,171.24 225.454,173.242 224.228,172.442 224.166,172.93 225.628,173.885 227.155,171.882 
				228.839,172.899 230.302,171.635 			"/>
			
				<linearGradient id="SVGID_00000041990900749032440920000013331093654779835304_" gradientUnits="userSpaceOnUse" x1="228.8521" y1="-12.8365" x2="230.0214" y2="-8.4039" gradientTransform="matrix(0.9986 0.0536 -0.0536 0.9986 -3.8618 163.0872)">
				<stop  offset="0" style="stop-color:#4776E6"/>
				<stop  offset="1" style="stop-color:#47CFE6"/>
			</linearGradient>
			<polygon style="fill:url(#SVGID_00000041990900749032440920000013331093654779835304_);" points="224.859,165.807 
				227.131,165.413 225.374,162.464 			"/>
			
				<linearGradient id="SVGID_00000051383392878435654050000005179182090857372841_" gradientUnits="userSpaceOnUse" x1="228.8573" y1="-12.8607" x2="229.6363" y2="-9.9075" gradientTransform="matrix(0.9986 0.0536 -0.0536 0.9986 -3.8618 163.0872)">
				<stop  offset="0" style="stop-color:#4776E6"/>
				<stop  offset="1" style="stop-color:#47CFE6"/>
			</linearGradient>
			<path style="fill:url(#SVGID_00000051383392878435654050000005179182090857372841_);" d="M226.481,164.322l-1.107-1.858
				l-0.325,2.106c0.059-0.111,0.146-0.228,0.266-0.24c0.209-0.022,0.353,0.289,0.509,0.248c0.139-0.037,0.1-0.305,0.264-0.373
				C226.204,164.158,226.357,164.236,226.481,164.322z"/>
		</g>
		<g>
			
				<linearGradient id="SVGID_00000084525601881434214370000004472957018947461016_" gradientUnits="userSpaceOnUse" x1="271.3854" y1="264.5345" x2="279.6986" y2="265.9338" gradientTransform="matrix(0.9998 -0.02 0.02 0.9998 -13.6808 -103.0888)">
				<stop  offset="0" style="stop-color:#4776E6"/>
				<stop  offset="0.5606" style="stop-color:#5A63E8"/>
				<stop  offset="1" style="stop-color:#645AE9"/>
			</linearGradient>
			<path style="fill:url(#SVGID_00000084525601881434214370000004472957018947461016_);" d="M267.771,173.555l-4.477-0.614
				c-0.835-0.115-1.392-1.095-1.243-2.19l3.965-29.169c0.149-1.095,0.947-1.889,1.782-1.775l4.478,0.614
				c0.835,0.115,1.391,1.095,1.242,2.19l-3.965,29.169C269.403,172.875,268.606,173.669,267.771,173.555z"/>
			
				<linearGradient id="SVGID_00000155829085495431825350000005297049269956337071_" gradientUnits="userSpaceOnUse" x1="262.5302" y1="328.9856" x2="269.1178" y2="329.9738" gradientTransform="matrix(0.9998 -0.02 0.02 0.9998 -13.6808 -103.0888)">
				<stop  offset="0" style="stop-color:#4776E6"/>
				<stop  offset="0.5606" style="stop-color:#5A63E8"/>
				<stop  offset="1" style="stop-color:#645AE9"/>
			</linearGradient>
			<path style="fill:url(#SVGID_00000155829085495431825350000005297049269956337071_);" d="M255.134,267.541l-4.749-0.651
				c-0.76-0.104-1.267-0.997-1.131-1.993l12.058-88.713c0.135-0.996,0.862-1.72,1.622-1.615l4.749,0.651
				c0.76,0.104,1.267,0.997,1.131,1.993l-12.058,88.713C256.62,266.922,255.895,267.645,255.134,267.541z"/>
			
				<linearGradient id="SVGID_00000065759956456847528720000003521849792188965281_" gradientUnits="userSpaceOnUse" x1="271.424" y1="264.5616" x2="279.3597" y2="265.8973" gradientTransform="matrix(0.9998 -0.02 0.02 0.9998 -13.6808 -103.0888)">
				<stop  offset="0" style="stop-color:#4776E6"/>
				<stop  offset="0.5606" style="stop-color:#5A63E8"/>
				<stop  offset="1" style="stop-color:#645AE9"/>
			</linearGradient>
			<path style="opacity:0.44;fill:url(#SVGID_00000065759956456847528720000003521849792188965281_);" d="M265.178,172.491
				c-0.835-0.114-1.392-1.095-1.243-2.189l3.965-29.169c0.067-0.494,0.271-0.921,0.546-1.236l-0.649-0.089
				c-0.835-0.115-1.633,0.68-1.782,1.775l-3.965,29.169c-0.149,1.095,0.408,2.075,1.243,2.19l4.477,0.614
				c0.458,0.063,0.901-0.154,1.236-0.538L265.178,172.491z"/>
			
				<linearGradient id="SVGID_00000163065612555609443250000008698645436023883694_" gradientUnits="userSpaceOnUse" x1="262.4908" y1="328.9797" x2="268.3784" y2="329.8629" gradientTransform="matrix(0.9998 -0.02 0.02 0.9998 -13.6808 -103.0888)">
				<stop  offset="0" style="stop-color:#4776E6"/>
				<stop  offset="0.5606" style="stop-color:#5A63E8"/>
				<stop  offset="1" style="stop-color:#645AE9"/>
			</linearGradient>
			<path style="opacity:0.44;fill:url(#SVGID_00000163065612555609443250000008698645436023883694_);" d="M252.27,266.44
				c-0.76-0.104-1.267-0.997-1.131-1.993l12.058-88.713c0.057-0.421,0.223-0.787,0.449-1.068l-0.712-0.098
				c-0.76-0.104-1.486,0.619-1.622,1.615l-12.058,88.713c-0.135,0.996,0.371,1.889,1.131,1.993l4.749,0.651
				c0.439,0.06,0.863-0.161,1.172-0.547L252.27,266.44z"/>
			<path style="fill:#FFFFFF;" d="M261.975,170.818l-0.11-0.015c-0.31-0.043-0.517-0.407-0.462-0.814l3.893-28.646
				c0.055-0.407,0.352-0.702,0.662-0.66l0.11,0.015c0.31,0.042,0.517,0.407,0.462,0.814l-3.894,28.647
				C262.582,170.565,262.285,170.86,261.975,170.818z"/>
		</g>
		<g>
			
				<linearGradient id="SVGID_00000176736310885135924460000015071233767499212440_" gradientUnits="userSpaceOnUse" x1="226.6959" y1="12.7435" x2="215.411" y2="15.0423" gradientTransform="matrix(0.9826 0.1855 -0.1855 0.9826 30.0648 144.5554)">
				<stop  offset="0" style="stop-color:#4776E6"/>
				<stop  offset="1" style="stop-color:#47CFE6"/>
			</linearGradient>
			<path style="fill:url(#SVGID_00000176736310885135924460000015071233767499212440_);" d="M253.413,267.821l-8.585,0.451
				l-6.522-137.448c0.701,0.737,1.401,1.473,2.102,2.21c0.658-0.95,1.316-1.9,1.974-2.85c0.879,0.554,1.759,1.107,2.638,1.661
				c0.624-0.491,1.247-0.981,1.871-1.471C249.065,176.189,251.239,222.005,253.413,267.821z"/>
			
				<linearGradient id="SVGID_00000075846364709627286830000005719691513240637630_" gradientUnits="userSpaceOnUse" x1="226.662" y1="12.6103" x2="215.377" y2="14.9091" gradientTransform="matrix(0.9826 0.1855 -0.1855 0.9826 30.0648 144.5554)">
				<stop  offset="0" style="stop-color:#4776E6"/>
				<stop  offset="1" style="stop-color:#47CFE6"/>
			</linearGradient>
			<path style="opacity:0.6;fill:url(#SVGID_00000075846364709627286830000005719691513240637630_);" d="M239.494,135
				c0.658-0.95,1.316-1.9,1.974-2.85c0.879,0.553,1.759,1.107,2.638,1.661c0.624-0.491,1.247-0.981,1.871-1.471
				c2.144,45.18,4.288,90.361,6.431,135.542l0.998-0.053c-2.172-45.818-4.343-91.637-6.515-137.455
				c-0.624,0.49-1.247,0.981-1.871,1.471c-0.882-0.551-1.763-1.102-2.645-1.653c-0.658,0.95-1.316,1.9-1.974,2.85
				c-0.701-0.737-1.401-1.473-2.102-2.21l0.146,3.066C238.794,134.265,239.144,134.632,239.494,135z"/>
			
				<linearGradient id="SVGID_00000009587056942453508870000007403353107583472042_" gradientUnits="userSpaceOnUse" x1="201.5618" y1="-60.9819" x2="210.3144" y2="-51.9122" gradientTransform="matrix(0.9826 0.1855 -0.1855 0.9826 30.0648 144.5554)">
				<stop  offset="0" style="stop-color:#FFFFFF"/>
				<stop  offset="1" style="stop-color:#47CFE6"/>
			</linearGradient>
			<polygon style="fill:url(#SVGID_00000009587056942453508870000007403353107583472042_);" points="238.222,129.053 
				240.015,130.687 242.479,128.071 244.559,129.832 246.791,128.271 243.772,119.764 240.616,119.93 			"/>
			
				<linearGradient id="SVGID_00000139270487558342144650000010192902133844292273_" gradientUnits="userSpaceOnUse" x1="204.4891" y1="-56.5543" x2="208.352" y2="-52.5514" gradientTransform="matrix(0.9826 0.1855 -0.1855 0.9826 30.0648 144.5554)">
				<stop  offset="0" style="stop-color:#FFFFFF"/>
				<stop  offset="1" style="stop-color:#47CFE6"/>
			</linearGradient>
			<polygon style="fill:url(#SVGID_00000139270487558342144650000010192902133844292273_);" points="246.498,127.443 
				244.449,128.876 242.369,127.115 239.905,129.73 238.403,128.361 238.222,129.053 240.015,130.687 242.479,128.071 
				244.559,129.832 246.791,128.271 			"/>
			
				<linearGradient id="SVGID_00000052813137103398513200000002480022332275424402_" gradientUnits="userSpaceOnUse" x1="202.4763" y1="-69.022" x2="204.1613" y2="-62.6346" gradientTransform="matrix(0.9826 0.1855 -0.1855 0.9826 30.0648 144.5554)">
				<stop  offset="0" style="stop-color:#4776E6"/>
				<stop  offset="1" style="stop-color:#47CFE6"/>
			</linearGradient>
			<polygon style="fill:url(#SVGID_00000052813137103398513200000002480022332275424402_);" points="240.568,118.915 
				243.724,118.749 241.926,114.191 			"/>
			
				<linearGradient id="SVGID_00000019660456889749736860000014223999818182422424_" gradientUnits="userSpaceOnUse" x1="202.5079" y1="-69.0628" x2="203.6364" y2="-64.7851" gradientTransform="matrix(0.9826 0.1855 -0.1855 0.9826 30.0648 144.5554)">
				<stop  offset="0" style="stop-color:#4776E6"/>
				<stop  offset="1" style="stop-color:#47CFE6"/>
			</linearGradient>
			<path style="fill:url(#SVGID_00000019660456889749736860000014223999818182422424_);" d="M243.059,117.063l-1.133-2.872
				l-0.856,2.977c0.102-0.15,0.243-0.302,0.408-0.299c0.287,0.006,0.421,0.479,0.64,0.447c0.195-0.029,0.196-0.421,0.431-0.49
				C242.716,116.776,242.908,116.916,243.059,117.063z"/>
		</g>
		<g>
			
				<linearGradient id="SVGID_00000170264570077908648940000016407368511882680967_" gradientUnits="userSpaceOnUse" x1="179.7367" y1="448.3258" x2="193.052" y2="440.3958" gradientTransform="matrix(0.9853 -0.1711 0.1711 0.9853 -61.5996 -212.1502)">
				<stop  offset="0" style="stop-color:#4776E6"/>
				<stop  offset="1" style="stop-color:#47CFE6"/>
			</linearGradient>
			<path style="fill:url(#SVGID_00000170264570077908648940000016407368511882680967_);" d="M193.956,183.651
				c-0.3,0.436-5.776,8.651-2.14,15.245c0.432,0.784,1.941,3.521,5.144,4.507c0.226,0.07,4.895,1.427,7.697-1.634
				c2.41-2.633,2.006-6.967,0.105-9.075c-1.933-2.143-4.487-0.956-7.366-3.185C195.253,187.849,194.369,185.409,193.956,183.651z"/>
			
				<linearGradient id="SVGID_00000172398614658347062410000007085744112834196621_" gradientUnits="userSpaceOnUse" x1="182.3643" y1="446.5262" x2="192.5515" y2="440.4593" gradientTransform="matrix(0.9853 -0.1711 0.1711 0.9853 -61.5996 -212.1502)">
				<stop  offset="0" style="stop-color:#4776E6"/>
				<stop  offset="1" style="stop-color:#47CFE6"/>
			</linearGradient>
			<path style="opacity:0.46;fill:url(#SVGID_00000172398614658347062410000007085744112834196621_);" d="M204.762,192.694
				c-1.933-2.143-4.487-0.956-7.366-3.185c-2.143-1.66-3.027-4.1-3.44-5.858c-0.21,0.306-2.963,4.438-3.337,9.154
				c0.504-0.805,0.952-1.04,1.316-1.051c1.654-0.052,2.163,4.481,4.528,4.865c1.971,0.319,2.969-2.608,4.807-2.289
				c2.199,0.381,2.632,4.887,4.234,6.238C206.918,197.96,206.396,194.506,204.762,192.694z"/>
			<g>
				
					<linearGradient id="SVGID_00000016072434729921798490000001595495372408283800_" gradientUnits="userSpaceOnUse" x1="187.1479" y1="441.3025" x2="187.791" y2="440.9195" gradientTransform="matrix(0.9853 -0.1711 0.1711 0.9853 -61.5996 -212.1502)">
					<stop  offset="0" style="stop-color:#4776E6"/>
					<stop  offset="1" style="stop-color:#47CFE6"/>
				</linearGradient>
				<path style="opacity:0.46;fill:url(#SVGID_00000016072434729921798490000001595495372408283800_);" d="M198.078,190.425
					c0.255-0.012,0.56-0.003,0.926,0.032c-0.093-0.04-0.203-0.09-0.321-0.148C198.431,190.329,198.232,190.369,198.078,190.425z"/>
				
					<linearGradient id="SVGID_00000113344489262651751230000001813742441476499353_" gradientUnits="userSpaceOnUse" x1="184.8952" y1="444.1059" x2="191.7233" y2="440.0394" gradientTransform="matrix(0.9853 -0.1711 0.1711 0.9853 -61.5996 -212.1502)">
					<stop  offset="0" style="stop-color:#4776E6"/>
					<stop  offset="1" style="stop-color:#47CFE6"/>
				</linearGradient>
				<path style="opacity:0.46;fill:url(#SVGID_00000113344489262651751230000001813742441476499353_);" d="M197.396,189.509
					c-2.096-1.624-2.987-3.992-3.411-5.74c-0.031-0.007-0.062-0.016-0.093-0.023c-0.277,0.419-1.28,2.006-2.113,4.177
					c1.048,1.805,1.774,3.548,3.632,3.995c2.404,0.579,3.824-1.703,5.57-0.675c1.549,0.912,0.965,3.022,2.892,4.988
					c0.757,0.772,1.629,1.243,2.43,1.542c0.142-1.932-0.452-3.871-1.542-5.079C202.829,190.551,200.275,191.738,197.396,189.509z"/>
			</g>
			
				<linearGradient id="SVGID_00000022549788445222999910000016809868720299862155_" gradientUnits="userSpaceOnUse" x1="213.9745" y1="495.671" x2="203.7159" y2="500.9581" gradientTransform="matrix(0.9853 -0.1711 0.1711 0.9853 -61.5996 -212.1502)">
				<stop  offset="0" style="stop-color:#4776E6"/>
				<stop  offset="1" style="stop-color:#47CFE6"/>
			</linearGradient>
			<path style="fill:url(#SVGID_00000022549788445222999910000016809868720299862155_);" d="M219.133,216.119
				c-3.109,1.895-6.218,3.79-9.327,5.684c2.817,5.123,7.174,12.505,13.263,20.878c8.183,11.253,20.513,25.696,22.472,24.395
				c2.317-1.538-10.59-24.607-13.607-29.999C226.903,228.087,222.324,220.918,219.133,216.119z"/>
			
				<linearGradient id="SVGID_00000056398152262806642960000007725267976581884564_" gradientUnits="userSpaceOnUse" x1="214.2612" y1="495.5232" x2="205.443" y2="500.068" gradientTransform="matrix(0.9853 -0.1711 0.1711 0.9853 -61.5996 -212.1502)">
				<stop  offset="0" style="stop-color:#4776E6"/>
				<stop  offset="1" style="stop-color:#47CFE6"/>
			</linearGradient>
			<path style="opacity:0.6;fill:url(#SVGID_00000056398152262806642960000007725267976581884564_);" d="M231.934,237.078
				c-5.03-8.99-9.609-16.16-12.801-20.958c-3.109,1.895-6.218,3.79-9.327,5.684c0.27,0.491,0.559,1.009,0.857,1.54
				c2.763-1.684,5.525-3.367,8.287-5.051c3.191,4.799,7.77,11.968,12.801,20.959c2.548,4.553,12.148,21.712,13.677,27.866
				c0.038-0.013,0.081-0.019,0.113-0.041C247.858,265.539,234.951,242.469,231.934,237.078z"/>
			
				<linearGradient id="SVGID_00000072980896130800272470000005314620696754806929_" gradientUnits="userSpaceOnUse" x1="187.9592" y1="471.5968" x2="212.5756" y2="466.8076" gradientTransform="matrix(0.9853 -0.1711 0.1711 0.9853 -61.5996 -212.1502)">
				<stop  offset="0" style="stop-color:#FFFFFF"/>
				<stop  offset="1" style="stop-color:#47CFE6"/>
			</linearGradient>
			<path style="fill:url(#SVGID_00000072980896130800272470000005314620696754806929_);" d="M206.789,220.769
				c-0.444-0.787-0.225-1.852,0.562-2.451c3.119-1.917,6.238-3.834,9.357-5.752c0.898-0.539,2.084-0.25,2.628,0.641
				c0.544,0.892,0.253,2.072-0.648,2.611c-3.061,1.866-6.121,3.732-9.181,5.598C208.537,222.001,207.293,221.661,206.789,220.769z"
				/>
			
				<linearGradient id="SVGID_00000026163066547069219920000018039006584959193499_" gradientUnits="userSpaceOnUse" x1="187.1932" y1="455.7166" x2="196.5081" y2="455.1419" gradientTransform="matrix(0.9853 -0.1711 0.1711 0.9853 -61.5996 -212.1502)">
				<stop  offset="0" style="stop-color:#FFFFFF"/>
				<stop  offset="1" style="stop-color:#47CFE6"/>
			</linearGradient>
			<path style="fill:url(#SVGID_00000026163066547069219920000018039006584959193499_);" d="M201.265,205.971
				c-0.351-0.563-0.176-1.301,0.391-1.649l4.542-2.789c0.566-0.348,1.31-0.174,1.66,0.389c0.351,0.563,0.176,1.301-0.39,1.649
				l-4.542,2.788C202.359,206.708,201.615,206.534,201.265,205.971z"/>
			
				<linearGradient id="SVGID_00000015318566574633266070000003627514965310921104_" gradientUnits="userSpaceOnUse" x1="188.2313" y1="459.6019" x2="204.8976" y2="471.1438" gradientTransform="matrix(0.9853 -0.1711 0.1711 0.9853 -61.5996 -212.1502)">
				<stop  offset="0" style="stop-color:#FFFFFF"/>
				<stop  offset="1" style="stop-color:#47CFE6"/>
			</linearGradient>
			<path style="fill:url(#SVGID_00000015318566574633266070000003627514965310921104_);" d="M203.201,206.547
				c1.54-0.947,3.079-1.894,4.619-2.841c1.166,1.634,2.738,3.528,4.816,5.41c1.341,1.214,2.653,2.206,3.855,3.013
				c-3.119,1.917-6.238,3.834-9.357,5.752c-0.217-1.416-0.555-3.009-1.082-4.723C205.234,210.496,204.185,208.284,203.201,206.547z"
				/>
		</g>
		
			<linearGradient id="SVGID_00000111157994145646640120000007265059877410769823_" gradientUnits="userSpaceOnUse" x1="137.2225" y1="214.2012" x2="238.1684" y2="214.2012">
			<stop  offset="0" style="stop-color:#4776E6"/>
			<stop  offset="0.483" style="stop-color:#479FE6"/>
			<stop  offset="1" style="stop-color:#47CFE6"/>
		</linearGradient>
		<path style="opacity:0.5;fill:url(#SVGID_00000111157994145646640120000007265059877410769823_);" d="M136.218,253.37
			c13.141-2.538,31.746-4.644,53.775-2.332c26.067,2.735,46.503,10.561,59.659,16.832c0.114,0.024,0.232,0.046,0.346,0.069
			c-11.68-7.418-29.404-16.809-52.564-22.693c-19.936-5.066-37.387-5.878-50.145-5.491c5.982-26.424,11.965-52.847,17.948-79.271
			c-2.124-0.065-4.541,0.02-7.177,0.388c-0.518,0.072-1.014,0.165-1.514,0.254C149.77,191.873,142.994,222.622,136.218,253.37z"/>
		
			<linearGradient id="SVGID_00000116931230260284439210000010717521416932284336_" gradientUnits="userSpaceOnUse" x1="249.9991" y1="236.2662" x2="249.9991" y2="286.6734">
			<stop  offset="0.4331" style="stop-color:#2F3F70"/>
			<stop  offset="0.6436" style="stop-color:#375299"/>
			<stop  offset="1" style="stop-color:#4776E6"/>
		</linearGradient>
		<path style="fill:url(#SVGID_00000116931230260284439210000010717521416932284336_);" d="M370.643,263.017l-2.812-0.655
			c-14.728-3.749-36.32-7.484-62.359-5.867c-23.112,1.435-42.051,6.609-55.474,11.408c-13.422-4.799-32.36-9.973-55.471-11.408
			c-26.039-1.617-47.631,2.118-62.359,5.867l-2.813,0.655l-6.886,26.355c20.02-7.075,44.859-13.954,73.803-17.942
			c6.106-0.841,26.536-3.5,53.726-3.491c27.343,0.008,48.03,2.71,53.728,3.491c19.306,2.648,44.773,7.698,73.802,17.942
			L370.643,263.017z"/>
		
			<linearGradient id="SVGID_00000055699095945820281190000002774870441854838970_" gradientUnits="userSpaceOnUse" x1="249.9914" y1="248.7309" x2="249.9914" y2="267.4711">
			<stop  offset="0.4331" style="stop-color:#2F3F70"/>
			<stop  offset="0.6436" style="stop-color:#375299"/>
			<stop  offset="1" style="stop-color:#4776E6"/>
		</linearGradient>
		<path style="fill:url(#SVGID_00000055699095945820281190000002774870441854838970_);" d="M191.603,263.052
			c14.018,0.825,26.577,2.888,37.415,5.403c6.361-0.315,13.407-0.519,20.98-0.517c7.626,0.002,14.733,0.215,21.143,0.536
			c10.857-2.524,23.444-4.594,37.497-5.422c26.099-1.536,47.958,1.759,63.401,5.308l-1.396-5.344l-2.813-0.655
			c-14.728-3.749-36.32-7.484-62.359-5.867c-23.112,1.435-42.051,6.609-55.474,11.408c-13.422-4.799-32.36-9.973-55.471-11.408
			c-26.039-1.617-47.631,2.118-62.359,5.867l-2.813,0.655l-1.412,5.403C143.4,264.849,165.358,261.508,191.603,263.052z"/>
		
			<linearGradient id="SVGID_00000023967978817010241790000015147667641482206358_" gradientUnits="userSpaceOnUse" x1="250" y1="161.2579" x2="250" y2="285.2986">
			<stop  offset="0" style="stop-color:#4776E6"/>
			<stop  offset="0.1988" style="stop-color:#4788E6"/>
			<stop  offset="0.5959" style="stop-color:#47B7E6"/>
			<stop  offset="0.7841" style="stop-color:#47CFE6"/>
		</linearGradient>
		<path style="fill:url(#SVGID_00000023967978817010241790000015147667641482206358_);" d="M356.387,165.591
			c-3.375-1.812-8.278-3.889-14.45-4.752c-2.635-0.368-5.053-0.452-7.177-0.388c5.983,26.424,11.965,52.847,17.948,79.271
			c-12.773-0.382-30.219,0.438-50.145,5.491c-23.133,5.865-40.857,15.216-52.563,22.62c-11.706-7.404-29.43-16.755-52.562-22.62
			c-19.927-5.053-37.372-5.872-50.145-5.491c5.983-26.423,11.965-52.847,17.948-79.271c-2.124-0.065-4.541,0.02-7.177,0.388
			c-6.172,0.863-11.075,2.94-14.45,4.752l-26.185,99.866c12.517-2.148,26.245-3.812,41.047-4.595
			c35.628-1.883,66.727,1.907,91.523,7.076c24.797-5.169,55.896-8.959,91.526-7.076c14.802,0.783,28.53,2.446,41.047,4.594
			L356.387,165.591z"/>
		<g>
			
				<linearGradient id="SVGID_00000019668795098666126900000008488078525175474360_" gradientUnits="userSpaceOnUse" x1="250.107" y1="161.2579" x2="250.107" y2="285.2986">
				<stop  offset="0" style="stop-color:#4776E6"/>
				<stop  offset="0.1988" style="stop-color:#4788E6"/>
				<stop  offset="0.5959" style="stop-color:#47B7E6"/>
				<stop  offset="0.7841" style="stop-color:#47CFE6"/>
			</linearGradient>
			<path style="opacity:0.7;fill:url(#SVGID_00000019668795098666126900000008488078525175474360_);" d="M135.235,254.473
				c12.39-3.441,33.899-7.678,60.19-3.877c21.62,3.126,38.266,10.501,48.75,16.18c1.976,0.378,3.92,0.766,5.823,1.162
				c2.001-0.417,4.048-0.824,6.131-1.221c10.519-5.684,26.504-12.722,47.027-16.121c26.752-4.43,48.863-0.63,61.823,2.652
				c-7.15-30.717-14.3-61.435-21.45-92.153c-0.522-0.093-1.051-0.182-1.592-0.257c-2.635-0.368-5.053-0.452-7.177-0.388
				c5.983,26.424,11.965,52.847,17.948,79.271c-12.773-0.382-30.219,0.438-50.145,5.491c-23.133,5.865-40.857,15.216-52.562,22.62
				c-11.706-7.404-29.43-16.755-52.562-22.62c-19.927-5.053-37.372-5.872-50.145-5.491c5.983-26.423,11.965-52.847,17.948-79.271
				c-1.684-0.051-3.559-0.002-5.575,0.202C151.522,191.926,143.378,223.2,135.235,254.473z"/>
			
				<linearGradient id="SVGID_00000106859728021645590150000011183874503724136380_" gradientUnits="userSpaceOnUse" x1="149.4227" y1="162.7683" x2="149.4227" y2="163.3076">
				<stop  offset="0" style="stop-color:#4776E6"/>
				<stop  offset="0.1988" style="stop-color:#4788E6"/>
				<stop  offset="0.5959" style="stop-color:#47B7E6"/>
				<stop  offset="0.7841" style="stop-color:#47CFE6"/>
			</linearGradient>
			<path style="fill:url(#SVGID_00000106859728021645590150000011183874503724136380_);" d="M150.068,162.765
				c-0.441,0.152-0.872,0.308-1.291,0.467C149.213,163.068,149.637,162.921,150.068,162.765z"/>
		</g>
		
			<linearGradient id="SVGID_00000026869623674648898420000008832254640037350795_" gradientUnits="userSpaceOnUse" x1="249.9989" y1="280.3883" x2="249.9989" y2="136.1091">
			<stop  offset="0.1821" style="stop-color:#8E54E9"/>
			<stop  offset="0.2846" style="stop-color:#885EE9"/>
			<stop  offset="0.4593" style="stop-color:#7979E8"/>
			<stop  offset="0.6834" style="stop-color:#5FA5E7"/>
			<stop  offset="0.873" style="stop-color:#47CFE6"/>
		</linearGradient>
		<path style="fill:url(#SVGID_00000026869623674648898420000008832254640037350795_);" d="M337.747,159.38
			c-6.201-1.898-14.605-3.77-24.652-4.056c-13.586-0.386-24.651,2.286-31.907,4.674c10.748-3.098,25.783-5.552,42.724-2.166
			c2.998,0.599,5.831,1.337,8.495,2.166c5.438,25.344,10.875,50.687,16.313,76.031c-5.725-0.269-14.372-0.329-24.761,1.012
			c-23.697,3.059-40.843,11.39-49.874,15.871c-6.124,3.039-14.583,7.679-24.084,14.43c0,0,0,0.001-0.001,0.001
			c0,0-0.001-0.001-0.001-0.001c-9.501-6.751-17.96-11.39-24.084-14.43c-9.031-4.481-26.177-12.812-49.875-15.871
			c-10.388-1.341-19.036-1.282-24.761-1.012c5.33-24.675,10.66-49.35,15.99-74.024c5.845-1.798,13.969-3.802,23.796-4.665
			c21.148-1.856,35.937,2.827,35.965,2.659c0.036-0.215-24.103-8.072-54.157-2.939c-4.336,0.741-7.958,1.609-10.622,2.32
			c-6.066,27.32-12.131,54.639-18.196,81.959c9.354-0.648,19.999-0.641,31.617,0.665c33.002,3.71,58.41,16.159,74.326,25.935
			c0,0,0-0.001,0.001-0.001c0,0,0,0.001,0.001,0.001c15.916-9.775,41.324-22.225,74.326-25.935
			c11.619-1.306,22.263-1.314,31.617-0.665C349.878,214.019,343.812,186.699,337.747,159.38z"/>
		
			<linearGradient id="SVGID_00000181804764190688322760000003463017859000324760_" gradientUnits="userSpaceOnUse" x1="250.1382" y1="249.7043" x2="250.1382" y2="299.3799">
			<stop  offset="0.4331" style="stop-color:#2F3F70"/>
			<stop  offset="0.6436" style="stop-color:#375299"/>
			<stop  offset="1" style="stop-color:#4776E6"/>
		</linearGradient>
		<path style="fill:url(#SVGID_00000181804764190688322760000003463017859000324760_);" d="M120.854,297.26
			c-0.514,1.593-1.029,3.186-1.543,4.778c27.029-9.795,57.949-18.85,92.466-25.469c13.246-2.54,26.06-4.537,38.379-6.088
			c12.431,1.026,25.615,2.646,39.428,5.061c35.471,6.201,66.117,16.073,91.382,26.426c-0.84-2.664-1.679-5.328-2.519-7.991
			c-25.193-8.474-54.862-16.193-88.489-20.86c-13.918-1.932-27.219-3.161-39.802-3.86c-12.22,0.894-25.107,2.314-38.565,4.42
			C176.887,279.107,146.47,287.835,120.854,297.26z"/>
		
			<linearGradient id="SVGID_00000147938911704992829450000005567258831174068887_" gradientUnits="userSpaceOnUse" x1="250.1382" y1="249.7043" x2="250.1382" y2="299.3799">
			<stop  offset="0.4331" style="stop-color:#2F3F70"/>
			<stop  offset="0.6436" style="stop-color:#375299"/>
			<stop  offset="1" style="stop-color:#4776E6"/>
		</linearGradient>
		<path style="fill:url(#SVGID_00000147938911704992829450000005567258831174068887_);" d="M120.854,298.417
			c25.616-9.425,56.033-18.153,90.736-23.583c13.458-2.106,26.346-3.525,38.565-4.42c12.583,0.699,25.883,1.928,39.802,3.86
			c33.627,4.667,63.296,12.386,88.489,20.86c0.701,2.222,1.401,4.444,2.101,6.667c0.138,0.056,0.28,0.112,0.418,0.168
			c-0.84-2.664-1.679-5.328-2.519-7.991c-25.193-8.474-54.862-16.193-88.489-20.86c-13.918-1.932-27.219-3.161-39.802-3.86
			c-12.22,0.894-25.107,2.314-38.565,4.42c-34.703,5.43-65.12,14.158-90.736,23.583c-0.514,1.593-1.029,3.186-1.543,4.778
			c0.139-0.051,0.283-0.1,0.422-0.151C120.107,300.731,120.48,299.574,120.854,298.417z"/>
	</g>
</g>
<g id="Texts">
	<g>
		<g>
			<g>
				
					<text transform="matrix(1 0 0 1 175.2664 373.0373)" style="fill:#333333; font-family:'Poppins-Regular'; font-size:16.5657px;">your tagline here</text>
			</g>
		</g>
		<g>
			<g>
				<text transform="matrix(1 0 0 1 108.1385 346.1099)" style="fill:#4776E6; font-family:'Poppins-Bold'; font-size:29.469px;">stationery store</text>
			</g>
		</g>
	</g>
</g>
</svg>
